<svg xmlns="http://www.w3.org/2000/svg" version="1.1" xmlns:xlink="http://www.w3.org/1999/xlink" xmlns:svgjs="http://svgjs.dev/svgjs" viewBox="0 0 2400 800"><defs><linearGradient x1="50%" y1="0%" x2="50%" y2="100%" id="sssurf-grad"><stop stop-color="hsla(212, 98%, 56%, 1.00)" stop-opacity="1" offset="0%"></stop><stop stop-color="hsla(212, 99%, 50%, 1.00)" stop-opacity="1" offset="100%"></stop></linearGradient></defs><g fill="url(#sssurf-grad)" transform="matrix(1,0,0,1,10.8282470703125,111.16757202148438)"><path d="M-10,10C33.75,13.333333333333332,114.58333333333334,30.166666666666668,200,26C285.41666666666663,21.833333333333332,316.66666666666663,-9.375,400,-10C483.33333333333337,-10.625,516.6666666666666,24.666666666666668,600,23C683.3333333333334,21.333333333333332,716.6666666666666,-22.583333333333332,800,-18C883.3333333333334,-13.416666666666668,916.6666666666666,42.5,1000,45C1083.3333333333333,47.5,1116.6666666666667,-2.666666666666667,1200,-6C1283.3333333333333,-9.333333333333332,1316.6666666666667,29,1400,29C1483.3333333333333,29,1516.6666666666667,-10.375,1600,-6C1683.3333333333333,-1.625,1716.6666666666667,48.75,1800,50C1883.3333333333333,51.25,1916.6666666666667,0.8333333333333333,2000,0C2083.3333333333335,-0.8333333333333333,2118.75,43.916666666666664,2200,46C2281.25,48.083333333333336,2296.25,-63.75,2390,10C2483.75,83.75,3252.0833333333335,214.58333333333331,2650,400C2047.9166666666665,585.4166666666667,156.25,795.8333333333334,-500,900" transform="matrix(1,0,0,1,0,62)" opacity="0.05"></path><path d="M-10,10C33.75,13.333333333333332,114.58333333333334,30.166666666666668,200,26C285.41666666666663,21.833333333333332,316.66666666666663,-9.375,400,-10C483.33333333333337,-10.625,516.6666666666666,24.666666666666668,600,23C683.3333333333334,21.333333333333332,716.6666666666666,-22.583333333333332,800,-18C883.3333333333334,-13.416666666666668,916.6666666666666,42.5,1000,45C1083.3333333333333,47.5,1116.6666666666667,-2.666666666666667,1200,-6C1283.3333333333333,-9.333333333333332,1316.6666666666667,29,1400,29C1483.3333333333333,29,1516.6666666666667,-10.375,1600,-6C1683.3333333333333,-1.625,1716.6666666666667,48.75,1800,50C1883.3333333333333,51.25,1916.6666666666667,0.8333333333333333,2000,0C2083.3333333333335,-0.8333333333333333,2118.75,43.916666666666664,2200,46C2281.25,48.083333333333336,2296.25,-63.75,2390,10C2483.75,83.75,3252.0833333333335,214.58333333333331,2650,400C2047.9166666666665,585.4166666666667,156.25,795.8333333333334,-500,900" transform="matrix(1,0,0,1,0,124)" opacity="0.21"></path><path d="M-10,10C33.75,13.333333333333332,114.58333333333334,30.166666666666668,200,26C285.41666666666663,21.833333333333332,316.66666666666663,-9.375,400,-10C483.33333333333337,-10.625,516.6666666666666,24.666666666666668,600,23C683.3333333333334,21.333333333333332,716.6666666666666,-22.583333333333332,800,-18C883.3333333333334,-13.416666666666668,916.6666666666666,42.5,1000,45C1083.3333333333333,47.5,1116.6666666666667,-2.666666666666667,1200,-6C1283.3333333333333,-9.333333333333332,1316.6666666666667,29,1400,29C1483.3333333333333,29,1516.6666666666667,-10.375,1600,-6C1683.3333333333333,-1.625,1716.6666666666667,48.75,1800,50C1883.3333333333333,51.25,1916.6666666666667,0.8333333333333333,2000,0C2083.3333333333335,-0.8333333333333333,2118.75,43.916666666666664,2200,46C2281.25,48.083333333333336,2296.25,-63.75,2390,10C2483.75,83.75,3252.0833333333335,214.58333333333331,2650,400C2047.9166666666665,585.4166666666667,156.25,795.8333333333334,-500,900" transform="matrix(1,0,0,1,0,186)" opacity="0.37"></path><path d="M-10,10C33.75,13.333333333333332,114.58333333333334,30.166666666666668,200,26C285.41666666666663,21.833333333333332,316.66666666666663,-9.375,400,-10C483.33333333333337,-10.625,516.6666666666666,24.666666666666668,600,23C683.3333333333334,21.333333333333332,716.6666666666666,-22.583333333333332,800,-18C883.3333333333334,-13.416666666666668,916.6666666666666,42.5,1000,45C1083.3333333333333,47.5,1116.6666666666667,-2.666666666666667,1200,-6C1283.3333333333333,-9.333333333333332,1316.6666666666667,29,1400,29C1483.3333333333333,29,1516.6666666666667,-10.375,1600,-6C1683.3333333333333,-1.625,1716.6666666666667,48.75,1800,50C1883.3333333333333,51.25,1916.6666666666667,0.8333333333333333,2000,0C2083.3333333333335,-0.8333333333333333,2118.75,43.916666666666664,2200,46C2281.25,48.083333333333336,2296.25,-63.75,2390,10C2483.75,83.75,3252.0833333333335,214.58333333333331,2650,400C2047.9166666666665,585.4166666666667,156.25,795.8333333333334,-500,900" transform="matrix(1,0,0,1,0,248)" opacity="0.53"></path><path d="M-10,10C33.75,13.333333333333332,114.58333333333334,30.166666666666668,200,26C285.41666666666663,21.833333333333332,316.66666666666663,-9.375,400,-10C483.33333333333337,-10.625,516.6666666666666,24.666666666666668,600,23C683.3333333333334,21.333333333333332,716.6666666666666,-22.583333333333332,800,-18C883.3333333333334,-13.416666666666668,916.6666666666666,42.5,1000,45C1083.3333333333333,47.5,1116.6666666666667,-2.666666666666667,1200,-6C1283.3333333333333,-9.333333333333332,1316.6666666666667,29,1400,29C1483.3333333333333,29,1516.6666666666667,-10.375,1600,-6C1683.3333333333333,-1.625,1716.6666666666667,48.75,1800,50C1883.3333333333333,51.25,1916.6666666666667,0.8333333333333333,2000,0C2083.3333333333335,-0.8333333333333333,2118.75,43.916666666666664,2200,46C2281.25,48.083333333333336,2296.25,-63.75,2390,10C2483.75,83.75,3252.0833333333335,214.58333333333331,2650,400C2047.9166666666665,585.4166666666667,156.25,795.8333333333334,-500,900" transform="matrix(1,0,0,1,0,310)" opacity="0.68"></path><path d="M-10,10C33.75,13.333333333333332,114.58333333333334,30.166666666666668,200,26C285.41666666666663,21.833333333333332,316.66666666666663,-9.375,400,-10C483.33333333333337,-10.625,516.6666666666666,24.666666666666668,600,23C683.3333333333334,21.333333333333332,716.6666666666666,-22.583333333333332,800,-18C883.3333333333334,-13.416666666666668,916.6666666666666,42.5,1000,45C1083.3333333333333,47.5,1116.6666666666667,-2.666666666666667,1200,-6C1283.3333333333333,-9.333333333333332,1316.6666666666667,29,1400,29C1483.3333333333333,29,1516.6666666666667,-10.375,1600,-6C1683.3333333333333,-1.625,1716.6666666666667,48.75,1800,50C1883.3333333333333,51.25,1916.6666666666667,0.8333333333333333,2000,0C2083.3333333333335,-0.8333333333333333,2118.75,43.916666666666664,2200,46C2281.25,48.083333333333336,2296.25,-63.75,2390,10C2483.75,83.75,3252.0833333333335,214.58333333333331,2650,400C2047.9166666666665,585.4166666666667,156.25,795.8333333333334,-500,900" transform="matrix(1,0,0,1,0,372)" opacity="0.84"></path><path d="M-10,10C33.75,13.333333333333332,114.58333333333334,30.166666666666668,200,26C285.41666666666663,21.833333333333332,316.66666666666663,-9.375,400,-10C483.33333333333337,-10.625,516.6666666666666,24.666666666666668,600,23C683.3333333333334,21.333333333333332,716.6666666666666,-22.583333333333332,800,-18C883.3333333333334,-13.416666666666668,916.6666666666666,42.5,1000,45C1083.3333333333333,47.5,1116.6666666666667,-2.666666666666667,1200,-6C1283.3333333333333,-9.333333333333332,1316.6666666666667,29,1400,29C1483.3333333333333,29,1516.6666666666667,-10.375,1600,-6C1683.3333333333333,-1.625,1716.6666666666667,48.75,1800,50C1883.3333333333333,51.25,1916.6666666666667,0.8333333333333333,2000,0C2083.3333333333335,-0.8333333333333333,2118.75,43.916666666666664,2200,46C2281.25,48.083333333333336,2296.25,-63.75,2390,10C2483.75,83.75,3252.0833333333335,214.58333333333331,2650,400C2047.9166666666665,585.4166666666667,156.25,795.8333333333334,-500,900" transform="matrix(1,0,0,1,0,434)" opacity="1.00"></path></g></svg>